<svg width="81" height="81" viewBox="0 0 81 81" fill="none" xmlns="http://www.w3.org/2000/svg">
<g filter="url(#filter0_d)">
<circle cx="40" cy="40" r="30" fill="white"/>
<rect x="22" y="28" width="35" height="4" rx="2" fill="black"/>
<path d="M32 50C32 48.8954 32.8954 48 34 48H55C56.1046 48 57 48.8954 57 50C57 51.1046 56.1046 52 55 52H34C32.8954 52 32 51.1046 32 50Z" fill="black"/>
<path d="M22 40C22 38.8954 22.8954 38 24 38H55C56.1046 38 57 38.8954 57 40C57 41.1046 56.1046 42 55 42H24C22.8954 42 22 41.1046 22 40Z" fill="black"/>
</g>
<defs>
<filter id="filter0_d" x="0.2" y="0.2" width="80" height="80" filterUnits="userSpaceOnUse" color-interpolation-filters="sRGB">
<feFlood flood-opacity="0" result="BackgroundImageFix"/>
<feColorMatrix in="SourceAlpha" type="matrix" values="0 0 0 0 0 0 0 0 0 0 0 0 0 0 0 0 0 0 127 0" result="hardAlpha"/>
<feOffset dx="0.2" dy="0.2"/>
<feGaussianBlur stdDeviation="5"/>
<feComposite in2="hardAlpha" operator="out"/>
<feColorMatrix type="matrix" values="0 0 0 0 0 0 0 0 0 0 0 0 0 0 0 0 0 0 0.25 0"/>
<feBlend mode="normal" in2="BackgroundImageFix" result="effect1_dropShadow"/>
<feBlend mode="normal" in="SourceGraphic" in2="effect1_dropShadow" result="shape"/>
</filter>
</defs>
</svg>
